<svg xmlns="http://www.w3.org/2000/svg" viewBox="0 0 1600 1000" preserveAspectRatio="xMidYMid slice">
  <defs>
    <linearGradient id="sky" x1="0" y1="0" x2="1" y2="1">
      <stop offset="0" stop-color="#f8f1dd"/>
      <stop offset="0.44" stop-color="#d9eadf"/>
      <stop offset="1" stop-color="#e1d3b5"/>
    </linearGradient>
    <linearGradient id="ridgeA" x1="0" y1="0" x2="1" y2="0">
      <stop offset="0" stop-color="#486c5f" stop-opacity="0.68"/>
      <stop offset="0.5" stop-color="#214f49" stop-opacity="0.56"/>
      <stop offset="1" stop-color="#8d6d3b" stop-opacity="0.54"/>
    </linearGradient>
    <linearGradient id="ridgeB" x1="0" y1="0" x2="1" y2="0">
      <stop offset="0" stop-color="#243c36" stop-opacity="0.52"/>
      <stop offset="0.55" stop-color="#73543b" stop-opacity="0.42"/>
      <stop offset="1" stop-color="#2f7569" stop-opacity="0.48"/>
    </linearGradient>
    <filter id="soften">
      <feGaussianBlur stdDeviation="9"/>
    </filter>
    <pattern id="grain" width="64" height="64" patternUnits="userSpaceOnUse">
      <path d="M8 14h2M25 47h1M41 10h2M58 34h1M15 59h1M51 54h2" stroke="#6e624b" stroke-opacity="0.15" stroke-width="1"/>
    </pattern>
  </defs>
  <rect width="1600" height="1000" fill="url(#sky)"/>
  <path d="M0 604c148-90 264-116 388-92 119 23 194 98 328 83 158-18 250-145 414-128 179 18 257 145 470 94v439H0Z" fill="url(#ridgeA)" filter="url(#soften)"/>
  <path d="M0 706c149-72 281-88 407-45 130 44 230 120 384 72 131-40 206-137 368-95 173 45 246 121 441 55v307H0Z" fill="url(#ridgeB)"/>
  <path d="M0 800c178-41 322-34 458 18 111 43 238 32 366-33 145-72 273-69 406 8 118 68 242 78 370 29v178H0Z" fill="#efe6d2" opacity="0.78"/>
  <path d="M222 272c104 10 197 7 279-9 133-26 228-89 343-80 134 11 220 100 360 92 63-4 119-23 174-55" fill="none" stroke="#ffffff" stroke-opacity="0.35" stroke-width="24" stroke-linecap="round"/>
  <path d="M160 350c84 16 175 14 275-5 86-16 166-21 241-12M925 338c154-37 279-32 374 17" fill="none" stroke="#174f48" stroke-opacity="0.12" stroke-width="6" stroke-linecap="round"/>
  <rect width="1600" height="1000" fill="url(#grain)"/>
</svg>
